<?xml version="1.0" encoding="UTF-8"?>
<svg id="Layer_1" data-name="Layer 1" xmlns="http://www.w3.org/2000/svg" version="1.1" viewBox="0 0 501.5 136.4">
  <g>
    <path d="M152.8,27.7c9,0,17,1.4,23.9,4.2,6.9,2.8,12.9,6.9,18,12.3l-12.2,16.3c-4.2-4.4-8.7-7.7-13.6-9.9-4.8-2.2-10.3-3.3-16.5-3.3s-6.6.4-8.8,1.2c-2.3.8-3.9,1.9-4.8,3.2-1,1.4-1.5,2.9-1.5,4.7s1,3.8,2.9,5.2c1.9,1.4,5,2.6,9.3,3.6l16.3,3.7c9.7,2.3,16.8,5.5,21.3,9.8,4.5,4.3,6.8,10,6.8,17.2s-1.8,12.6-5.3,17.4c-3.5,4.7-8.4,8.3-14.5,10.7-6.2,2.4-13.2,3.6-21.1,3.6s-12.6-.7-18.5-2.1c-5.9-1.4-11.2-3.4-15.9-6.1-4.7-2.6-8.7-5.7-11.9-9.1l12.2-16.9c2.4,2.8,5.5,5.4,9,7.6,3.6,2.2,7.5,3.9,11.7,5.2,4.3,1.3,8.6,1.9,13,1.9s6.3-.3,8.6-1c2.3-.7,4-1.7,5.1-3.1,1.1-1.4,1.6-3,1.6-4.8s-.7-3.8-2.2-5.2c-1.5-1.4-4.3-2.6-8.4-3.6l-17.9-4c-5.5-1.3-10.3-3-14.6-5.1-4.3-2.1-7.6-4.9-10.1-8.5-2.4-3.6-3.7-8-3.7-13.4s1.7-11.5,5-16.2c3.3-4.7,8.1-8.5,14.4-11.2,6.3-2.7,13.7-4.1,22.5-4.1Z" fill="#2e3e59" stroke-width="0"/>
    <path d="M297.6,29.2l-34.3,96.9h-29.6l-34.5-96.9h26.6l17.8,58.6,5.3,19.1,5.1-18.8,18.1-58.9h25.7Z" fill="#2e3e59" stroke-width="0"/>
    <path d="M343.1,127.5c-8.6,0-16.3-1.9-23-5.7-6.7-3.8-11.9-9.4-15.6-16.9-3.7-7.4-5.6-16.5-5.6-27.2s2-19.4,5.9-26.9c3.9-7.4,9.5-13.2,16.8-17.2,7.3-4,15.9-6,25.8-6s19.8,2,26.6,5.9c6.8,4,12,10.3,15.7,18.9l-23.3,9.2c-1.3-5-3.5-8.6-6.8-10.9-3.2-2.2-7.2-3.4-12-3.4s-8.9,1.2-12.3,3.4c-3.4,2.3-6,5.7-7.8,10.1-1.8,4.5-2.6,10-2.6,16.5s.9,12.6,2.7,17.2c1.8,4.6,4.5,8,8.1,10.2,3.6,2.2,8,3.3,13.3,3.3s5.4-.3,7.8-1c2.3-.7,4.4-1.7,6.2-3,1.8-1.3,3.1-3,4.1-5,1-2,1.5-4.4,1.5-7.1v-1.5h-22.2v-16.9h43.6v52.3h-17.2l-1.9-22.8,4.1,3.5c-2.1,6.7-5.7,11.8-11.1,15.3-5.3,3.6-12.2,5.4-20.6,5.4Z" fill="#2e3e59" stroke-width="0"/>
  </g>
  <g>
    <path d="M174.3,20V4.1s13.2,0,13.2,0v4.1h-7.6v2h6.1v3.8s-6.1,0-6.1,0v1.9h7.9v4.1h-13.5Z" fill="#2e3e59" stroke-width="0"/>
    <path d="M205,3.9c1.5,0,2.9.2,4.1.6,1.2.4,2.3.9,3.2,1.7l-2.3,3.6c-.8-.5-1.5-1-2.4-1.3-.8-.3-1.7-.5-2.7-.5s-.8,0-1,0-.4.2-.5.3c-.1.1-.2.2-.2.4s.1.3.4.4c.3,0,.7.2,1.1.3l2.2.5c1.6.4,2.8.9,3.7,1.6.8.7,1.2,1.7,1.2,3,0,1.3-.3,2.3-.9,3.2s-1.5,1.4-2.5,1.8c-1.1.4-2.3.6-3.6.6s-2,0-3-.3c-1-.2-1.9-.5-2.8-.8s-1.6-.8-2.2-1.3l2.2-3.7c.5.4,1,.7,1.7,1,.7.3,1.3.5,2,.7.7.2,1.4.3,2,.3s.7,0,.9,0c.2,0,.4-.1.5-.3s.1-.2.1-.4c0-.2,0-.4-.3-.5-.2-.1-.5-.2-1-.3l-2.4-.5c-.9-.2-1.7-.4-2.4-.8-.8-.3-1.4-.8-1.9-1.4-.5-.6-.7-1.5-.7-2.5s.3-2,.9-2.9c.6-.8,1.4-1.5,2.6-1.9s2.5-.7,4.1-.7Z" fill="#2e3e59" stroke-width="0"/>
    <path d="M222.3,20V4.1s9.1,0,9.1,0c2,0,3.5.4,4.5,1.1s1.5,1.8,1.5,3.2-.3,1.7-.9,2.4-1.5,1.1-2.7,1.3h0c1.4.2,2.4.6,3,1.3.6.7,1,1.5,1,2.6s-.5,2.4-1.4,3.1c-.9.7-2.4,1-4.3,1h-9.7ZM227.6,10.3h2.5c1,0,1.4-.4,1.4-1.2s-.5-1.2-1.4-1.2h-2.5v2.3ZM227.6,16.4h2.9c.5,0,.9,0,1.1-.3.2-.2.4-.5.4-.9s-.1-.7-.4-.8c-.2-.2-.6-.3-1.1-.3h-2.9v2.3Z" fill="#2e3e59" stroke-width="0"/>
    <path d="M262.9,4.1v9.1c0,2.4-.6,4.1-1.9,5.3-1.3,1.2-3.2,1.8-5.8,1.8s-4.5-.6-5.8-1.8c-1.3-1.2-1.9-2.9-1.9-5.3V4.1h5.6v9.5c0,.8.2,1.4.5,1.8.4.4.9.6,1.5.6s1.2-.2,1.5-.6c.4-.4.5-1,.5-1.8V4.1h5.6Z" fill="#2e3e59" stroke-width="0"/>
    <path d="M279.3,4.1v15.9h-5.6V4.1h5.6Z" fill="#2e3e59" stroke-width="0"/>
    <path d="M296,15.9h7.2v4.1h-12.8V4.1h5.6v11.8Z" fill="#2e3e59" stroke-width="0"/>
    <path d="M321.4,4.1c2.5,0,4.4.7,5.6,2.1,1.3,1.4,1.9,3.3,1.9,5.9s-.6,4.5-1.9,5.9c-1.3,1.4-3.1,2.1-5.6,2.1h-7.8V4.1h7.8ZM320.6,16c1,0,1.7-.3,2.1-1,.3-.6.5-1.6.5-3s-.2-2.4-.5-3c-.3-.6-1-1-2.1-1h-1.4v7.9h1.4Z" fill="#2e3e59" stroke-width="0"/>
  </g>
  <path d="M89.7,122.4L5.7,83.4v-19L89.7,25.5v18.5l-69.1,29.7,69.1,30v18.7Z" fill="#001ef4" stroke-width="0"/>
  <path d="M411.4,25.5l84,38.9v19l-84,38.9v-18.5l69.1-29.7-69.1-30v-18.7Z" fill="#001ef4" stroke-width="0"/>
</svg>